<svg xmlns="http://www.w3.org/2000/svg" xmlns:xlink="http://www.w3.org/1999/xlink" width="80" height="80" xml:space="preserve"><g transform="translate(-1031 -124)"><path d="M1031 124 1111 124 1111 204 1031 204Z" fill="#ED7100" fill-rule="evenodd"></path><path d="M1050 160 1048 160 1048 151C1048 150.634 1048.2 150.297 1048.52 150.122L1059.52 144.113 1060.48 145.868 1050 151.593 1050 160ZM1094 160 1092 160 1092 151.593 1081.52 145.866 1082.48 144.111 1093.48 150.122C1093.8 150.297 1094 150.634 1094 151L1094 160ZM1064.51 186.871 1048.51 177.827C1048.19 177.65 1048 177.317 1048 176.957L1048 167 1050 167 1050 176.373 1065.49 185.129 1064.51 186.871ZM1077.49 186.871 1076.51 185.129 1092 176.373 1092 167 1094 167 1094 176.957C1094 177.317 1093.81 177.65 1093.49 177.827L1077.49 186.871ZM1066 150.382 1071 152.882 1076 150.382 1076 143.618 1071 141.118 1066 143.618 1066 150.382ZM1056.06 158.958 1071 166.869 1085.94 158.958 1075.5 152.867 1072 154.618 1072 159 1070 159 1070 154.618 1066.5 152.867 1056.06 158.958ZM1055.99 169.93 1071 177.962 1086.01 169.93 1078.46 165.182 1072 168.603 1072 171 1070 171 1070 168.601 1063.54 165.181 1055.99 169.93ZM1070 190 1070 179.696 1053.53 170.882C1053.21 170.713 1053.01 170.391 1053 170.035 1052.99 169.679 1053.17 169.343 1053.47 169.153L1061.5 164.101 1053.53 159.884C1053.21 159.714 1053.01 159.384 1053 159.021 1052.99 158.658 1053.18 158.319 1053.5 158.136L1064.38 151.786C1064.14 151.599 1064 151.311 1064 151L1064 143C1064 142.621 1064.21 142.275 1064.55 142.105L1070.55 139.105C1070.83 138.965 1071.17 138.965 1071.45 139.105L1077.45 142.105C1077.79 142.275 1078 142.621 1078 143L1078 151C1078 151.311 1077.86 151.599 1077.62 151.786L1088.5 158.136C1088.82 158.319 1089.01 158.658 1089 159.021 1088.99 159.383 1088.79 159.714 1088.47 159.884L1080.5 164.102 1088.53 169.153C1088.83 169.343 1089.01 169.679 1089 170.035 1088.99 170.391 1088.79 170.714 1088.47 170.882L1072 179.695 1072 190 1070 190Z" fill="#FFFFFF" fill-rule="evenodd"></path></g></svg>