<svg xmlns="http://www.w3.org/2000/svg" xmlns:xlink="http://www.w3.org/1999/xlink" width="500" zoomAndPan="magnify" viewBox="0 0 375 374.999991" height="500" preserveAspectRatio="xMidYMid meet" version="1.0"><defs><g/></defs><g fill="#000b42" fill-opacity="1"><g transform="translate(18.281736, 187.662892)"><g><path d="M 14.96875 0.359375 C 12.164062 0.359375 9.796875 -0.164062 7.859375 -1.21875 C 5.929688 -2.28125 4.460938 -3.78125 3.453125 -5.71875 C 2.441406 -7.664062 1.9375 -9.972656 1.9375 -12.640625 C 1.9375 -14.648438 2.226562 -16.457031 2.8125 -18.0625 C 3.40625 -19.675781 4.257812 -21.050781 5.375 -22.1875 C 6.5 -23.332031 7.863281 -24.207031 9.46875 -24.8125 C 11.070312 -25.425781 12.894531 -25.734375 14.9375 -25.734375 C 16.28125 -25.734375 17.628906 -25.570312 18.984375 -25.25 C 20.347656 -24.925781 21.628906 -24.378906 22.828125 -23.609375 C 23.234375 -23.347656 23.5 -23.023438 23.625 -22.640625 C 23.757812 -22.253906 23.78125 -21.863281 23.6875 -21.46875 C 23.59375 -21.070312 23.410156 -20.726562 23.140625 -20.4375 C 22.878906 -20.15625 22.550781 -19.976562 22.15625 -19.90625 C 21.757812 -19.832031 21.320312 -19.929688 20.84375 -20.203125 C 19.925781 -20.722656 19 -21.101562 18.0625 -21.34375 C 17.132812 -21.582031 16.09375 -21.703125 14.9375 -21.703125 C 13.164062 -21.703125 11.664062 -21.347656 10.4375 -20.640625 C 9.21875 -19.929688 8.300781 -18.90625 7.6875 -17.5625 C 7.070312 -16.21875 6.765625 -14.578125 6.765625 -12.640625 C 6.765625 -9.679688 7.472656 -7.429688 8.890625 -5.890625 C 10.304688 -4.359375 12.40625 -3.59375 15.1875 -3.59375 C 16.144531 -3.59375 17.113281 -3.6875 18.09375 -3.875 C 19.082031 -4.070312 20.046875 -4.34375 20.984375 -4.6875 L 20.09375 -2.625 L 20.09375 -10.296875 L 16.125 -10.296875 C 15.53125 -10.296875 15.066406 -10.453125 14.734375 -10.765625 C 14.410156 -11.078125 14.25 -11.5 14.25 -12.03125 C 14.25 -12.582031 14.410156 -13 14.734375 -13.28125 C 15.066406 -13.570312 15.53125 -13.71875 16.125 -13.71875 L 22.0625 -13.71875 C 22.664062 -13.71875 23.128906 -13.554688 23.453125 -13.234375 C 23.773438 -12.910156 23.9375 -12.445312 23.9375 -11.84375 L 23.9375 -3.09375 C 23.9375 -2.5625 23.832031 -2.113281 23.625 -1.75 C 23.425781 -1.394531 23.097656 -1.132812 22.640625 -0.96875 C 21.585938 -0.582031 20.375 -0.265625 19 -0.015625 C 17.632812 0.234375 16.289062 0.359375 14.96875 0.359375 Z M 14.96875 0.359375 "/></g></g></g><g fill="#000b42" fill-opacity="1"><g transform="translate(48.377801, 187.662892)"><g><path d="M 5.109375 0 C 4.367188 0 3.789062 -0.207031 3.375 -0.625 C 2.96875 -1.050781 2.765625 -1.632812 2.765625 -2.375 L 2.765625 -23.140625 C 2.765625 -23.910156 2.960938 -24.492188 3.359375 -24.890625 C 3.753906 -25.285156 4.328125 -25.484375 5.078125 -25.484375 C 5.816406 -25.484375 6.382812 -25.285156 6.78125 -24.890625 C 7.175781 -24.492188 7.375 -23.910156 7.375 -23.140625 L 7.375 -3.921875 L 17.8125 -3.921875 C 18.46875 -3.921875 18.96875 -3.753906 19.3125 -3.421875 C 19.664062 -3.085938 19.84375 -2.609375 19.84375 -1.984375 C 19.84375 -1.359375 19.664062 -0.867188 19.3125 -0.515625 C 18.96875 -0.171875 18.46875 0 17.8125 0 Z M 5.109375 0 "/></g></g></g><g fill="#000b42" fill-opacity="1"><g transform="translate(72.209852, 187.662892)"><g><path d="M 14.140625 0.359375 C 11.691406 0.359375 9.550781 -0.175781 7.71875 -1.25 C 5.882812 -2.332031 4.460938 -3.851562 3.453125 -5.8125 C 2.441406 -7.769531 1.9375 -10.066406 1.9375 -12.703125 C 1.9375 -14.703125 2.222656 -16.5 2.796875 -18.09375 C 3.378906 -19.6875 4.203125 -21.050781 5.265625 -22.1875 C 6.335938 -23.332031 7.625 -24.207031 9.125 -24.8125 C 10.625 -25.425781 12.296875 -25.734375 14.140625 -25.734375 C 16.617188 -25.734375 18.769531 -25.195312 20.59375 -24.125 C 22.414062 -23.0625 23.832031 -21.554688 24.84375 -19.609375 C 25.851562 -17.671875 26.359375 -15.382812 26.359375 -12.75 C 26.359375 -10.75 26.066406 -8.945312 25.484375 -7.34375 C 24.910156 -5.738281 24.085938 -4.359375 23.015625 -3.203125 C 21.953125 -2.046875 20.671875 -1.160156 19.171875 -0.546875 C 17.671875 0.0546875 15.992188 0.359375 14.140625 0.359375 Z M 14.140625 -3.59375 C 15.703125 -3.59375 17.03125 -3.953125 18.125 -4.671875 C 19.21875 -5.398438 20.054688 -6.445312 20.640625 -7.8125 C 21.234375 -9.175781 21.53125 -10.804688 21.53125 -12.703125 C 21.53125 -15.585938 20.882812 -17.820312 19.59375 -19.40625 C 18.3125 -20.988281 16.492188 -21.78125 14.140625 -21.78125 C 12.609375 -21.78125 11.289062 -21.425781 10.1875 -20.71875 C 9.082031 -20.007812 8.234375 -18.976562 7.640625 -17.625 C 7.054688 -16.269531 6.765625 -14.628906 6.765625 -12.703125 C 6.765625 -9.847656 7.410156 -7.613281 8.703125 -6 C 10.003906 -4.394531 11.816406 -3.59375 14.140625 -3.59375 Z M 14.140625 -3.59375 "/></g></g></g><g fill="#000b42" fill-opacity="1"><g transform="translate(104.06991, 187.662892)"><g><path d="M 5.21875 0 C 4.425781 0 3.816406 -0.207031 3.390625 -0.625 C 2.972656 -1.050781 2.765625 -1.660156 2.765625 -2.453125 L 2.765625 -22.9375 C 2.765625 -23.726562 2.972656 -24.332031 3.390625 -24.75 C 3.816406 -25.164062 4.425781 -25.375 5.21875 -25.375 L 13.859375 -25.375 C 15.640625 -25.375 17.148438 -25.109375 18.390625 -24.578125 C 19.640625 -24.054688 20.59375 -23.300781 21.25 -22.3125 C 21.914062 -21.332031 22.25 -20.160156 22.25 -18.796875 C 22.25 -17.253906 21.800781 -15.953125 20.90625 -14.890625 C 20.019531 -13.835938 18.8125 -13.132812 17.28125 -12.78125 L 17.28125 -13.3125 C 19.050781 -13.050781 20.425781 -12.378906 21.40625 -11.296875 C 22.394531 -10.222656 22.890625 -8.820312 22.890625 -7.09375 C 22.890625 -4.832031 22.128906 -3.082031 20.609375 -1.84375 C 19.085938 -0.613281 16.96875 0 14.25 0 Z M 7.203125 -3.484375 L 13.6875 -3.484375 C 15.3125 -3.484375 16.507812 -3.800781 17.28125 -4.4375 C 18.050781 -5.082031 18.4375 -6.039062 18.4375 -7.3125 C 18.4375 -8.601562 18.050781 -9.5625 17.28125 -10.1875 C 16.507812 -10.8125 15.3125 -11.125 13.6875 -11.125 L 7.203125 -11.125 Z M 7.203125 -14.609375 L 13.0625 -14.609375 C 14.644531 -14.609375 15.828125 -14.914062 16.609375 -15.53125 C 17.390625 -16.144531 17.78125 -17.050781 17.78125 -18.25 C 17.78125 -19.445312 17.390625 -20.351562 16.609375 -20.96875 C 15.828125 -21.582031 14.644531 -21.890625 13.0625 -21.890625 L 7.203125 -21.890625 Z M 7.203125 -14.609375 "/></g></g></g><g fill="#000b42" fill-opacity="1"><g transform="translate(132.437964, 187.662892)"><g><path d="M 3.03125 0.28125 C 2.445312 0.28125 1.976562 0.148438 1.625 -0.109375 C 1.28125 -0.367188 1.070312 -0.722656 1 -1.171875 C 0.9375 -1.617188 1.023438 -2.113281 1.265625 -2.65625 L 10.765625 -23.71875 C 11.078125 -24.414062 11.453125 -24.914062 11.890625 -25.21875 C 12.335938 -25.519531 12.847656 -25.671875 13.421875 -25.671875 C 13.972656 -25.671875 14.472656 -25.519531 14.921875 -25.21875 C 15.367188 -24.914062 15.75 -24.414062 16.0625 -23.71875 L 25.59375 -2.65625 C 25.851562 -2.113281 25.945312 -1.613281 25.875 -1.15625 C 25.8125 -0.695312 25.609375 -0.34375 25.265625 -0.09375 C 24.929688 0.15625 24.488281 0.28125 23.9375 0.28125 C 23.269531 0.28125 22.75 0.117188 22.375 -0.203125 C 22 -0.523438 21.671875 -1.019531 21.390625 -1.6875 L 19.046875 -7.125 L 20.984375 -5.875 L 5.796875 -5.875 L 7.734375 -7.125 L 5.4375 -1.6875 C 5.125 -0.988281 4.796875 -0.484375 4.453125 -0.171875 C 4.117188 0.128906 3.644531 0.28125 3.03125 0.28125 Z M 13.359375 -20.375 L 8.3125 -8.390625 L 7.375 -9.546875 L 19.40625 -9.546875 L 18.5 -8.390625 L 13.421875 -20.375 Z M 13.359375 -20.375 "/></g></g></g><g fill="#000b42" fill-opacity="1"><g transform="translate(162.822026, 187.662892)"><g><path d="M 5.109375 0 C 4.367188 0 3.789062 -0.207031 3.375 -0.625 C 2.96875 -1.050781 2.765625 -1.632812 2.765625 -2.375 L 2.765625 -23.140625 C 2.765625 -23.910156 2.960938 -24.492188 3.359375 -24.890625 C 3.753906 -25.285156 4.328125 -25.484375 5.078125 -25.484375 C 5.816406 -25.484375 6.382812 -25.285156 6.78125 -24.890625 C 7.175781 -24.492188 7.375 -23.910156 7.375 -23.140625 L 7.375 -3.921875 L 17.8125 -3.921875 C 18.46875 -3.921875 18.96875 -3.753906 19.3125 -3.421875 C 19.664062 -3.085938 19.84375 -2.609375 19.84375 -1.984375 C 19.84375 -1.359375 19.664062 -0.867188 19.3125 -0.515625 C 18.96875 -0.171875 18.46875 0 17.8125 0 Z M 5.109375 0 "/></g></g></g><g fill="#000b42" fill-opacity="1"><g transform="translate(186.656725, 187.662892)"><g/></g></g><g fill="#000b42" fill-opacity="1"><g transform="translate(200.012752, 187.662892)"><g/></g></g><g fill="#000b42" fill-opacity="1"><g transform="translate(213.368778, 187.662892)"><g/></g></g><g fill="#000b42" fill-opacity="1"><g transform="translate(226.734847, 187.662892)"><g><path d="M 5.078125 0.28125 C 4.328125 0.28125 3.753906 0.0703125 3.359375 -0.34375 C 2.960938 -0.757812 2.765625 -1.34375 2.765625 -2.09375 L 2.765625 -23.046875 C 2.765625 -23.804688 2.96875 -24.382812 3.375 -24.78125 C 3.789062 -25.175781 4.367188 -25.375 5.109375 -25.375 L 13.78125 -25.375 C 16.570312 -25.375 18.722656 -24.675781 20.234375 -23.28125 C 21.742188 -21.894531 22.5 -19.953125 22.5 -17.453125 C 22.5 -14.960938 21.742188 -13.015625 20.234375 -11.609375 C 18.722656 -10.203125 16.570312 -9.5 13.78125 -9.5 L 7.375 -9.5 L 7.375 -2.09375 C 7.375 -1.34375 7.179688 -0.757812 6.796875 -0.34375 C 6.421875 0.0703125 5.847656 0.28125 5.078125 0.28125 Z M 7.375 -13.140625 L 13.0625 -13.140625 C 14.695312 -13.140625 15.929688 -13.503906 16.765625 -14.234375 C 17.609375 -14.972656 18.03125 -16.046875 18.03125 -17.453125 C 18.03125 -18.867188 17.609375 -19.9375 16.765625 -20.65625 C 15.929688 -21.382812 14.695312 -21.75 13.0625 -21.75 L 7.375 -21.75 Z M 7.375 -13.140625 "/></g></g></g><g fill="#000b42" fill-opacity="1"><g transform="translate(253.806903, 187.662892)"><g><path d="M 5.21875 0 C 4.425781 0 3.816406 -0.207031 3.390625 -0.625 C 2.972656 -1.050781 2.765625 -1.660156 2.765625 -2.453125 L 2.765625 -22.9375 C 2.765625 -23.726562 2.972656 -24.332031 3.390625 -24.75 C 3.816406 -25.164062 4.425781 -25.375 5.21875 -25.375 L 18.078125 -25.375 C 18.671875 -25.375 19.128906 -25.21875 19.453125 -24.90625 C 19.773438 -24.59375 19.9375 -24.148438 19.9375 -23.578125 C 19.9375 -22.984375 19.773438 -22.519531 19.453125 -22.1875 C 19.128906 -21.863281 18.671875 -21.703125 18.078125 -21.703125 L 7.203125 -21.703125 L 7.203125 -14.71875 L 17.28125 -14.71875 C 17.90625 -14.71875 18.375 -14.5625 18.6875 -14.25 C 19 -13.9375 19.15625 -13.484375 19.15625 -12.890625 C 19.15625 -12.285156 19 -11.828125 18.6875 -11.515625 C 18.375 -11.203125 17.90625 -11.046875 17.28125 -11.046875 L 7.203125 -11.046875 L 7.203125 -3.671875 L 18.078125 -3.671875 C 18.671875 -3.671875 19.128906 -3.515625 19.453125 -3.203125 C 19.773438 -2.890625 19.9375 -2.4375 19.9375 -1.84375 C 19.9375 -1.238281 19.773438 -0.78125 19.453125 -0.46875 C 19.128906 -0.15625 18.671875 0 18.078125 0 Z M 5.21875 0 "/></g></g></g><g fill="#000b42" fill-opacity="1"><g transform="translate(278.898948, 187.662892)"><g><path d="M 5.078125 0.28125 C 4.328125 0.28125 3.753906 0.0703125 3.359375 -0.34375 C 2.960938 -0.757812 2.765625 -1.34375 2.765625 -2.09375 L 2.765625 -23.046875 C 2.765625 -23.804688 2.96875 -24.382812 3.375 -24.78125 C 3.789062 -25.175781 4.367188 -25.375 5.109375 -25.375 L 13.78125 -25.375 C 16.570312 -25.375 18.722656 -24.707031 20.234375 -23.375 C 21.742188 -22.050781 22.5 -20.1875 22.5 -17.78125 C 22.5 -16.21875 22.15625 -14.875 21.46875 -13.75 C 20.789062 -12.625 19.800781 -11.757812 18.5 -11.15625 C 17.207031 -10.5625 15.632812 -10.265625 13.78125 -10.265625 L 14.109375 -10.796875 L 15.296875 -10.796875 C 16.285156 -10.796875 17.144531 -10.554688 17.875 -10.078125 C 18.601562 -9.597656 19.242188 -8.84375 19.796875 -7.8125 L 22.5 -2.8125 C 22.789062 -2.300781 22.921875 -1.804688 22.890625 -1.328125 C 22.867188 -0.847656 22.691406 -0.457031 22.359375 -0.15625 C 22.023438 0.132812 21.53125 0.28125 20.875 0.28125 C 20.226562 0.28125 19.703125 0.144531 19.296875 -0.125 C 18.890625 -0.40625 18.53125 -0.832031 18.21875 -1.40625 L 14.578125 -8.09375 C 14.148438 -8.914062 13.640625 -9.460938 13.046875 -9.734375 C 12.460938 -10.015625 11.710938 -10.15625 10.796875 -10.15625 L 7.375 -10.15625 L 7.375 -2.09375 C 7.375 -1.34375 7.179688 -0.757812 6.796875 -0.34375 C 6.421875 0.0703125 5.847656 0.28125 5.078125 0.28125 Z M 7.375 -13.578125 L 13 -13.578125 C 14.65625 -13.578125 15.90625 -13.914062 16.75 -14.59375 C 17.601562 -15.28125 18.03125 -16.304688 18.03125 -17.671875 C 18.03125 -19.015625 17.601562 -20.03125 16.75 -20.71875 C 15.90625 -21.40625 14.65625 -21.75 13 -21.75 L 7.375 -21.75 Z M 7.375 -13.578125 "/></g></g></g><g fill="#000b42" fill-opacity="1"><g transform="translate(307.195007, 187.662892)"><g><path d="M 11.203125 0.28125 C 10.453125 0.28125 9.878906 0.0703125 9.484375 -0.34375 C 9.085938 -0.757812 8.890625 -1.34375 8.890625 -2.09375 L 8.890625 -21.53125 L 1.875 -21.53125 C 1.25 -21.53125 0.757812 -21.703125 0.40625 -22.046875 C 0.0625 -22.398438 -0.109375 -22.875 -0.109375 -23.46875 C -0.109375 -24.09375 0.0625 -24.566406 0.40625 -24.890625 C 0.757812 -25.210938 1.25 -25.375 1.875 -25.375 L 20.515625 -25.375 C 21.140625 -25.375 21.625 -25.210938 21.96875 -24.890625 C 22.320312 -24.566406 22.5 -24.09375 22.5 -23.46875 C 22.5 -22.875 22.320312 -22.398438 21.96875 -22.046875 C 21.625 -21.703125 21.140625 -21.53125 20.515625 -21.53125 L 13.5 -21.53125 L 13.5 -2.09375 C 13.5 -1.34375 13.304688 -0.757812 12.921875 -0.34375 C 12.535156 0.0703125 11.960938 0.28125 11.203125 0.28125 Z M 11.203125 0.28125 "/></g></g></g><g fill="#000b42" fill-opacity="1"><g transform="translate(333.151058, 187.662892)"><g><path d="M 11.515625 0.359375 C 10.460938 0.359375 9.40625 0.28125 8.34375 0.125 C 7.289062 -0.03125 6.296875 -0.269531 5.359375 -0.59375 C 4.421875 -0.914062 3.582031 -1.316406 2.84375 -1.796875 C 2.414062 -2.085938 2.113281 -2.4375 1.9375 -2.84375 C 1.769531 -3.25 1.71875 -3.648438 1.78125 -4.046875 C 1.84375 -4.441406 2 -4.789062 2.25 -5.09375 C 2.5 -5.394531 2.816406 -5.582031 3.203125 -5.65625 C 3.585938 -5.726562 4.007812 -5.617188 4.46875 -5.328125 C 5.519531 -4.703125 6.632812 -4.242188 7.8125 -3.953125 C 8.988281 -3.671875 10.222656 -3.53125 11.515625 -3.53125 C 13.410156 -3.53125 14.789062 -3.847656 15.65625 -4.484375 C 16.519531 -5.117188 16.953125 -5.941406 16.953125 -6.953125 C 16.953125 -7.785156 16.644531 -8.441406 16.03125 -8.921875 C 15.425781 -9.398438 14.378906 -9.796875 12.890625 -10.109375 L 8.921875 -10.9375 C 6.648438 -11.414062 4.953125 -12.222656 3.828125 -13.359375 C 2.710938 -14.503906 2.15625 -16.015625 2.15625 -17.890625 C 2.15625 -19.066406 2.394531 -20.132812 2.875 -21.09375 C 3.351562 -22.050781 4.03125 -22.878906 4.90625 -23.578125 C 5.789062 -24.273438 6.835938 -24.804688 8.046875 -25.171875 C 9.253906 -25.546875 10.59375 -25.734375 12.0625 -25.734375 C 13.5 -25.734375 14.863281 -25.550781 16.15625 -25.1875 C 17.457031 -24.832031 18.625 -24.304688 19.65625 -23.609375 C 20.039062 -23.347656 20.296875 -23.023438 20.421875 -22.640625 C 20.554688 -22.253906 20.585938 -21.875 20.515625 -21.5 C 20.441406 -21.132812 20.273438 -20.816406 20.015625 -20.546875 C 19.753906 -20.285156 19.425781 -20.128906 19.03125 -20.078125 C 18.632812 -20.035156 18.179688 -20.160156 17.671875 -20.453125 C 16.785156 -20.953125 15.882812 -21.3125 14.96875 -21.53125 C 14.0625 -21.75 13.082031 -21.859375 12.03125 -21.859375 C 10.925781 -21.859375 9.972656 -21.703125 9.171875 -21.390625 C 8.378906 -21.078125 7.773438 -20.632812 7.359375 -20.0625 C 6.941406 -19.5 6.734375 -18.835938 6.734375 -18.078125 C 6.734375 -17.210938 7.019531 -16.519531 7.59375 -16 C 8.164062 -15.488281 9.148438 -15.085938 10.546875 -14.796875 L 14.46875 -13.96875 C 16.84375 -13.46875 18.613281 -12.675781 19.78125 -11.59375 C 20.945312 -10.507812 21.53125 -9.066406 21.53125 -7.265625 C 21.53125 -6.117188 21.296875 -5.078125 20.828125 -4.140625 C 20.359375 -3.203125 19.6875 -2.394531 18.8125 -1.71875 C 17.9375 -1.050781 16.882812 -0.535156 15.65625 -0.171875 C 14.4375 0.179688 13.054688 0.359375 11.515625 0.359375 Z M 11.515625 0.359375 "/></g></g></g><g fill="#27e600" fill-opacity="1"><g transform="translate(182.365423, 196.433001)"><g><path d="M 9.53125 0 C 7.695312 0 6.332031 -0.5 5.4375 -1.5 C 4.539062 -2.507812 4.179688 -3.910156 4.359375 -5.703125 L 4.484375 -7.546875 C 4.910156 -12.117188 5.75 -15.78125 7 -18.53125 C 8.257812 -21.28125 9.914062 -23.207031 11.96875 -24.3125 L 11.96875 -24.578125 C 10.6875 -25.429688 9.546875 -26.441406 8.546875 -27.609375 C 7.546875 -28.785156 6.703125 -30.257812 6.015625 -32.03125 C 5.328125 -33.800781 4.816406 -36.007812 4.484375 -38.65625 C 4.265625 -40.445312 4.601562 -41.832031 5.5 -42.8125 C 6.394531 -43.789062 7.757812 -44.28125 9.59375 -44.28125 L 12.15625 -44.28125 C 15.53125 -44.28125 17.453125 -42.445312 17.921875 -38.78125 C 18.347656 -35.789062 18.753906 -33.460938 19.140625 -31.796875 C 19.523438 -30.140625 19.992188 -28.96875 20.546875 -28.28125 C 21.097656 -27.601562 21.84375 -27.265625 22.78125 -27.265625 C 23.675781 -27.265625 24.421875 -27.582031 25.015625 -28.21875 C 25.617188 -28.863281 26.101562 -29.992188 26.46875 -31.609375 C 26.832031 -33.234375 27.035156 -35.5 27.078125 -38.40625 C 27.160156 -42.320312 28.953125 -44.28125 32.453125 -44.28125 L 34.109375 -44.28125 C 35.941406 -44.28125 37.304688 -43.789062 38.203125 -42.8125 C 39.097656 -41.832031 39.441406 -40.445312 39.234375 -38.65625 C 38.460938 -34.6875 37.46875 -31.65625 36.25 -29.5625 C 35.039062 -27.476562 33.347656 -25.816406 31.171875 -24.578125 L 31.171875 -24.3125 C 33.347656 -23.164062 35.050781 -21.191406 36.28125 -18.390625 C 37.519531 -15.597656 38.503906 -11.984375 39.234375 -7.546875 L 39.359375 -5.703125 C 39.523438 -3.910156 39.160156 -2.507812 38.265625 -1.5 C 37.367188 -0.5 36.003906 0 34.171875 0 L 31.8125 0 C 28.4375 0 26.554688 -1.875 26.171875 -5.625 C 25.742188 -9.9375 25.050781 -12.945312 24.09375 -14.65625 C 23.132812 -16.363281 21.910156 -17.21875 20.421875 -17.21875 C 19.003906 -17.21875 17.960938 -16.394531 17.296875 -14.75 C 16.640625 -13.101562 16.269531 -10.128906 16.1875 -5.828125 C 16.101562 -1.941406 14.289062 0 10.75 0 Z M 9.53125 0 "/></g></g></g></svg>